# xmcd CD database file generated by Grip 2.96
# 
# Track frame offsets:
#       150
#       22411
#       34390
#       60530
#       81735
#       105575
#       117835
#       132672
#       151125
#       161700
#       175094
#       194325
#       208295
#       227795
# 
# Disc length: 3243 seconds
# 
# Revision: 0
# Processed by: cddbd v1.4PL0 Copyright (c) Steve Scherf et al.
# Submitted via: Grip 2.96
# 
DISCID=ce0ca90e
DTITLE=Adrian Byron Burns - Back To The Wood
DYEAR=1900
DGENRE=
TTITLE0=Trippin' Over The Wire
TTITLE1=Massa John
TTITLE2=Ain't No Sunshine
TTITLE3=She's 19 Years Old
TTITLE4=PC Blues
TTITLE5=Somebody's Tappin'
TTITLE6=Crossroads
TTITLE7=Big Boss Man
TTITLE8=Born Under A Bad Sign
TTITLE9=Oreo Cookie Blues
TTITLE10=Sitting On Top Of The World
TTITLE11=Hard Way
TTITLE12=Come On In My Kitchen
TTITLE13=A Place Of Your Own
EXTD=
EXTT0=
EXTT1=
EXTT2=
EXTT3=
EXTT4=
EXTT5=
EXTT6=
EXTT7=
EXTT8=
EXTT9=
EXTT10=
EXTT11=
EXTT12=
EXTT13=
PLAYORDER=
